<svg width="136" height="136" viewBox="0 0 136 136" fill="none" xmlns="http://www.w3.org/2000/svg">
<g id="navAid" clip-path="url(#clip0_17_2)">
<g id="marker">
<g id="group-R5">
<path id="path3" d="M101.499 48.9186C101.499 78.4528 68 105.283 68 105.283C68 105.283 34.5014 78.4528 34.5014 48.9186C34.5014 30.4182 49.4997 15.4199 68 15.4199C86.5003 15.4199 101.499 30.4182 101.499 48.9186Z" fill="#5BB4B8"/>
<path id="path4" d="M101.499 48.9186C101.499 78.4528 68 105.283 68 105.283V15.4199C86.5003 15.4199 101.499 30.4182 101.499 48.9186Z" fill="#C9E5C4"/>
<path id="path5" d="M68 17.8883C63.81 17.8883 59.7466 18.708 55.9227 20.3258C52.2279 21.8886 48.9092 24.1264 46.0586 26.9768C43.208 29.8273 40.9703 33.1463 39.4074 36.8412C37.79 40.6646 36.9699 44.7285 36.9699 48.9186C36.9699 55.2735 38.6439 62.058 41.9453 69.0837C44.6298 74.7963 48.386 80.6721 53.1096 86.5485C59.1334 94.0428 65.2281 99.6392 68 102.051C70.7719 99.6392 76.8666 94.0428 82.8902 86.5485C87.6143 80.6721 91.3704 74.7963 94.0545 69.0837C97.3562 62.058 99.0303 55.2735 99.0303 48.9186C99.0303 44.7285 98.2099 40.6646 96.5928 36.8412C95.03 33.1463 92.7922 29.8273 89.9411 26.9768C87.0907 24.1264 83.7723 21.8886 80.0774 20.3258C76.2534 18.708 72.1901 17.8883 68 17.8883ZM68 107.752C67.4542 107.752 66.9077 107.571 66.457 107.209C66.1065 106.929 57.7748 100.213 49.3281 89.7241C44.3431 83.5337 40.3643 77.3135 37.5024 71.2368C33.8732 63.5305 32.033 56.0215 32.033 48.9186C32.033 44.064 32.9843 39.3535 34.8606 34.918C36.6723 30.6346 39.2653 26.7883 42.5677 23.486C45.8701 20.1836 49.7162 17.5904 53.9995 15.7791C58.4352 13.9023 63.1454 12.9515 68 12.9515C72.8546 12.9515 77.5645 13.9023 82.0006 15.7791C86.284 17.5904 90.1297 20.1836 93.4326 23.486C96.735 26.7883 99.3276 30.6346 101.14 34.918C103.016 39.3535 103.967 44.064 103.967 48.9186C103.967 56.0215 102.127 63.5305 98.4974 71.2368C95.6358 77.3135 91.6572 83.5337 86.6722 89.7241C78.2254 100.213 69.8935 106.929 69.543 107.209C69.0923 107.571 68.5459 107.752 68 107.752Z" fill="#114E60"/>
</g>
</g>
<g id="bandaid">
<path id="path2" d="M82.7448 50.9855C87.1127 55.0039 91.2587 59.2775 94.6528 63.6033C94.6281 64.6557 94.186 65.9307 93.4461 67.2502C91.3553 70.9906 86.8878 75.0809 82.8571 75.4059C81.3612 74.4994 79.6725 73.3532 77.8509 72.0309C74.7646 69.7894 71.2979 67.0402 67.7482 64.0908C66.7265 64.9395 65.7116 65.7717 64.7106 66.5795C60.1831 70.2387 55.9398 73.4071 52.6406 75.4059C47.189 74.9659 40.9396 67.6414 40.8449 63.6033C42.6017 61.3634 44.5613 59.1372 46.6488 56.9539C48.5924 54.9208 50.647 52.9238 52.7531 50.9858C47.9984 46.6504 44.0286 42.8645 41.8537 40.6698C41.4548 40.2679 41.1158 39.9194 40.8449 39.631C40.8831 34.5818 48.2876 28.2411 52.6406 27.8284C53.8772 28.6691 55.9033 30.0299 58.4479 31.8049C61.0887 33.6473 64.2889 35.9371 67.7496 38.5593C68.6391 37.8855 69.5116 37.2336 70.3618 36.6056C76.0046 32.4341 80.6666 29.318 82.8571 27.8284C87.2103 28.2411 94.6148 34.5818 94.6528 39.631C93.566 40.7848 91.4219 42.8913 88.6128 45.5424C86.8801 47.1803 84.8929 49.0269 82.7448 50.9855Z" fill="#3A7F8F"/>
<path id="path10" d="M91.1098 37.7665C91.5712 37.7665 91.9456 38.1118 91.9456 38.538C91.9456 38.9643 91.5712 39.3096 91.1098 39.3096C90.648 39.3096 90.2739 38.9643 90.2739 38.538C90.2739 38.1118 90.648 37.7665 91.1098 37.7665Z" fill="#DEF4F9"/>
<path id="path11" d="M87.4148 41.159C87.8766 41.159 88.2507 41.5044 88.2507 41.9306C88.2507 42.3568 87.8766 42.7022 87.4148 42.7022C86.9534 42.7022 86.5793 42.3568 86.5793 41.9306C86.5793 41.5044 86.9534 41.159 87.4148 41.159Z" fill="#DEF4F9"/>
<path id="path12" d="M84.1134 45.8392C83.6516 45.8392 83.2775 45.4938 83.2775 45.0676C83.2775 44.6417 83.6516 44.2964 84.1134 44.2964C84.5748 44.2964 84.9489 44.6417 84.9489 45.0676C84.9489 45.4938 84.5748 45.8392 84.1134 45.8392Z" fill="#DEF4F9"/>
<path id="path13" d="M86.9218 33.9551C87.3832 33.9551 87.7573 34.3004 87.7573 34.7267C87.7573 35.1526 87.3832 35.4982 86.9218 35.4982C86.46 35.4982 86.0859 35.1526 86.0859 34.7267C86.0859 34.3004 86.46 33.9551 86.9218 33.9551Z" fill="#DEF4F9"/>
<path id="path14" d="M83.2269 38.8908C82.7654 38.8908 82.391 38.5451 82.391 38.1192C82.391 37.693 82.7654 37.3476 83.2269 37.3476C83.6886 37.3476 84.0627 37.693 84.0627 38.1192C84.0627 38.5451 83.6886 38.8908 83.2269 38.8908Z" fill="#DEF4F9"/>
<path id="path15" d="M79.925 42.0278C79.4636 42.0278 79.0892 41.6824 79.0892 41.2562C79.0892 40.8303 79.4636 40.4847 79.925 40.4847C80.3868 40.4847 80.7609 40.8303 80.7609 41.2562C80.7609 41.6824 80.3868 42.0278 79.925 42.0278Z" fill="#DEF4F9"/>
<path id="path16" d="M83.1579 31.8474C82.6961 31.8474 82.322 31.502 82.322 31.0758C82.322 30.6496 82.6961 30.3042 83.1579 30.3042C83.6193 30.3042 83.9937 30.6496 83.9937 31.0758C83.9937 31.502 83.6193 31.8474 83.1579 31.8474Z" fill="#DEF4F9"/>
<path id="path17" d="M79.463 35.2399C79.0016 35.2399 78.6274 34.8946 78.6274 34.4683C78.6274 34.0421 79.0016 33.6968 79.463 33.6968C79.9247 33.6968 80.2988 34.0421 80.2988 34.4683C80.2988 34.8946 79.9247 35.2399 79.463 35.2399Z" fill="#DEF4F9"/>
<path id="path18" d="M76.1615 38.3769C75.6997 38.3769 75.3256 38.0316 75.3256 37.6053C75.3256 37.1794 75.6997 36.8341 76.1615 36.8341C76.6229 36.8341 76.997 37.1794 76.997 37.6053C76.997 38.0316 76.6229 38.3769 76.1615 38.3769Z" fill="#DEF4F9"/>
<path id="path19" d="M60.1334 64.354C60.595 64.354 60.9692 64.6997 60.9692 65.1256C60.9692 65.5518 60.595 65.8971 60.1334 65.8971C59.6718 65.8971 59.2975 65.5518 59.2975 65.1256C59.2975 64.6997 59.6718 64.354 60.1334 64.354Z" fill="#DEF4F9"/>
<path id="path20" d="M56.8316 67.4913C57.2932 67.4913 57.6674 67.8367 57.6674 68.2629C57.6674 68.6888 57.2932 69.0344 56.8316 69.0344C56.3699 69.0344 55.9958 68.6888 55.9958 68.2629C55.9958 67.8367 56.3699 67.4913 56.8316 67.4913Z" fill="#DEF4F9"/>
<path id="path21" d="M53.0677 70.5311C53.5293 70.5311 53.9036 70.8765 53.9036 71.3027C53.9036 71.7289 53.5293 72.0743 53.0677 72.0743C52.6061 72.0743 52.2319 71.7289 52.2319 71.3027C52.2319 70.8765 52.6061 70.5311 53.0677 70.5311Z" fill="#DEF4F9"/>
<path id="path22" d="M55.9453 60.5426C56.4069 60.5426 56.7811 60.888 56.7811 61.3142C56.7811 61.7404 56.4069 62.0857 55.9453 62.0857C55.4837 62.0857 55.1095 61.7404 55.1095 61.3142C55.1095 60.888 55.4837 60.5426 55.9453 60.5426Z" fill="#DEF4F9"/>
<path id="path23" d="M52.6435 63.6799C53.1051 63.6799 53.4793 64.0253 53.4793 64.4515C53.4793 64.8774 53.1051 65.2227 52.6435 65.2227C52.1819 65.2227 51.8077 64.8774 51.8077 64.4515C51.8077 64.0253 52.1819 63.6799 52.6435 63.6799Z" fill="#DEF4F9"/>
<path id="path24" d="M48.8797 68.2629C48.4181 68.2629 48.0439 67.9172 48.0439 67.4913C48.0439 67.0651 48.4181 66.7197 48.8797 66.7197C49.3413 66.7197 49.7155 67.0651 49.7155 67.4913C49.7155 67.9172 49.3413 68.2629 48.8797 68.2629Z" fill="#DEF4F9"/>
<path id="path25" d="M52.1815 56.8917C52.6431 56.8917 53.0173 57.2374 53.0173 57.6633C53.0173 58.0895 52.6431 58.4349 52.1815 58.4349C51.7199 58.4349 51.3456 58.0895 51.3456 57.6633C51.3456 57.2374 51.7199 56.8917 52.1815 56.8917Z" fill="#DEF4F9"/>
<path id="path26" d="M48.8797 61.5722C48.4181 61.5722 48.0439 61.2265 48.0439 60.8006C48.0439 60.3744 48.4181 60.029 48.8797 60.029C49.3413 60.029 49.7155 60.3744 49.7155 60.8006C49.7155 61.2265 49.3413 61.5722 48.8797 61.5722Z" fill="#DEF4F9"/>
<path id="path27" d="M45.1159 64.612C44.6543 64.612 44.2801 64.2667 44.2801 63.8404C44.2801 63.4145 44.6543 63.0689 45.1159 63.0689C45.5775 63.0689 45.9517 63.4145 45.9517 63.8404C45.9517 64.2667 45.5775 64.612 45.1159 64.612Z" fill="#DEF4F9"/>
<path id="path28" d="M45.1159 39.3096C44.6543 39.3096 44.2801 38.9643 44.2801 38.538C44.2801 38.1118 44.6543 37.7665 45.1159 37.7665C45.5775 37.7665 45.9517 38.1118 45.9517 38.538C45.9517 38.9643 45.5775 39.3096 45.1159 39.3096Z" fill="#DEF4F9"/>
<path id="path29" d="M49.6464 41.9306C49.6464 42.3568 49.2722 42.7022 48.8106 42.7022C48.349 42.7022 47.9748 42.3568 47.9748 41.9306C47.9748 41.5044 48.349 41.159 48.8106 41.159C49.2722 41.159 49.6464 41.5044 49.6464 41.9306Z" fill="#DEF4F9"/>
<path id="path30" d="M52.9482 45.0676C52.9482 45.4938 52.574 45.8392 52.1123 45.8392C51.6507 45.8392 51.2766 45.4938 51.2766 45.0676C51.2766 44.6417 51.6507 44.2964 52.1123 44.2964C52.574 44.2964 52.9482 44.6417 52.9482 45.0676Z" fill="#DEF4F9"/>
<path id="path31" d="M56.712 48.1078C56.712 48.5337 56.3378 48.8793 55.8762 48.8793C55.4146 48.8793 55.0404 48.5337 55.0404 48.1078C55.0404 47.6815 55.4146 47.3362 55.8762 47.3362C56.3378 47.3362 56.712 47.6815 56.712 48.1078Z" fill="#DEF4F9"/>
<path id="path32" d="M49.3039 35.4982C48.8423 35.4982 48.4681 35.1526 48.4681 34.7267C48.4681 34.3004 48.8423 33.9551 49.3039 33.9551C49.7655 33.9551 50.1397 34.3004 50.1397 34.7267C50.1397 35.1526 49.7655 35.4982 49.3039 35.4982Z" fill="#DEF4F9"/>
<path id="path33" d="M52.9986 38.8908C52.537 38.8908 52.1628 38.5451 52.1628 38.1192C52.1628 37.693 52.537 37.3476 52.9986 37.3476C53.4602 37.3476 53.8344 37.693 53.8344 38.1192C53.8344 38.5451 53.4602 38.8908 52.9986 38.8908Z" fill="#DEF4F9"/>
<path id="path34" d="M57.1362 41.2562C57.1362 41.6824 56.762 42.0278 56.3004 42.0278C55.8388 42.0278 55.4646 41.6824 55.4646 41.2562C55.4646 40.8303 55.8388 40.4847 56.3004 40.4847C56.762 40.4847 57.1362 40.8303 57.1362 41.2562Z" fill="#DEF4F9"/>
<path id="path35" d="M60.0643 45.0676C59.6026 45.0676 59.2284 44.7223 59.2284 44.2964C59.2284 43.8701 59.6026 43.5248 60.0643 43.5248C60.5259 43.5248 60.9001 43.8701 60.9001 44.2964C60.9001 44.7223 60.5259 45.0676 60.0643 45.0676Z" fill="#DEF4F9"/>
<path id="path36" d="M52.2319 31.0758C52.2319 30.6496 52.6061 30.3042 53.0677 30.3042C53.5293 30.3042 53.9036 30.6496 53.9036 31.0758C53.9036 31.3034 53.7968 31.5079 53.6269 31.6493C53.4788 31.7723 53.2828 31.8474 53.0677 31.8474C52.9494 31.8474 52.8368 31.8246 52.7347 31.7837C52.4388 31.6647 52.2319 31.3925 52.2319 31.0758Z" fill="#DEF4F9"/>
<path id="path37" d="M56.7625 35.2399C56.3009 35.2399 55.9266 34.8946 55.9266 34.4683C55.9266 34.0421 56.3009 33.6968 56.7625 33.6968C57.2241 33.6968 57.5983 34.0421 57.5983 34.4683C57.5983 34.8946 57.2241 35.2399 56.7625 35.2399Z" fill="#DEF4F9"/>
<path id="path38" d="M60.0643 38.3769C59.6026 38.3769 59.2284 38.0316 59.2284 37.6053C59.2284 37.1794 59.6026 36.8341 60.0643 36.8341C60.5259 36.8341 60.9001 37.1794 60.9001 37.6053C60.9001 38.0316 60.5259 38.3769 60.0643 38.3769Z" fill="#DEF4F9"/>
<path id="path39" d="M63.8281 41.4171C63.3665 41.4171 62.9922 41.0714 62.9922 40.6455C62.9922 40.2193 63.3665 39.8739 63.8281 39.8739C64.2897 39.8739 64.6639 40.2193 64.6639 40.6455C64.6639 41.0714 64.2897 41.4171 63.8281 41.4171Z" fill="#DEF4F9"/>
<path id="path40" d="M72.3976 60.9614C72.859 60.9614 73.2335 61.3071 73.2335 61.733C73.2335 62.1592 72.859 62.5046 72.3976 62.5046C71.9359 62.5046 71.5617 62.1592 71.5617 61.733C71.5617 61.3071 71.9359 60.9614 72.3976 60.9614Z" fill="#DEF4F9"/>
<path id="path41" d="M76.0922 64.354C76.554 64.354 76.9281 64.6997 76.9281 65.1256C76.9281 65.5518 76.554 65.8971 76.0922 65.8971C75.6305 65.8971 75.2563 65.5518 75.2563 65.1256C75.2563 64.6997 75.6305 64.354 76.0922 64.354Z" fill="#DEF4F9"/>
<path id="path42" d="M80.2299 68.2629C80.2299 68.6888 79.8557 69.0344 79.394 69.0344C78.9323 69.0344 78.5581 68.6888 78.5581 68.2629C78.5581 67.8367 78.9323 67.4913 79.394 67.4913C79.8557 67.4913 80.2299 67.8367 80.2299 68.2629Z" fill="#DEF4F9"/>
<path id="path43" d="M83.9937 71.3027C83.9937 71.7289 83.6193 72.0743 83.1579 72.0743C82.6961 72.0743 82.322 71.7289 82.322 71.3027C82.322 70.8765 82.6961 70.5311 83.1579 70.5311C83.6193 70.5311 83.9937 70.8765 83.9937 71.3027Z" fill="#DEF4F9"/>
<path id="path44" d="M76.5856 58.6932C76.1238 58.6932 75.7497 58.3478 75.7497 57.9216C75.7497 57.4954 76.1238 57.1501 76.5856 57.1501C77.0473 57.1501 77.4215 57.4954 77.4215 57.9216C77.4215 58.3478 77.0473 58.6932 76.5856 58.6932Z" fill="#DEF4F9"/>
<path id="path45" d="M80.2802 60.5426C80.7419 60.5426 81.116 60.888 81.116 61.3142C81.116 61.7404 80.7419 62.0857 80.2802 62.0857C79.8188 62.0857 79.4443 61.7404 79.4443 61.3142C79.4443 60.888 79.8188 60.5426 80.2802 60.5426Z" fill="#DEF4F9"/>
<path id="path46" d="M83.582 63.6799C84.0437 63.6799 84.4179 64.0253 84.4179 64.4515C84.4179 64.8774 84.0437 65.2227 83.582 65.2227C83.1206 65.2227 82.7461 64.8774 82.7461 64.4515C82.7461 64.0253 83.1206 63.6799 83.582 63.6799Z" fill="#DEF4F9"/>
<path id="path47" d="M87.3459 66.7197C87.8076 66.7197 88.1817 67.0651 88.1817 67.4913C88.1817 67.9172 87.8076 68.2629 87.3459 68.2629C86.8841 68.2629 86.51 67.9172 86.51 67.4913C86.51 67.0651 86.8841 66.7197 87.3459 66.7197Z" fill="#DEF4F9"/>
<path id="path48" d="M80.3495 55.0423C79.8877 55.0423 79.5136 54.697 79.5136 54.2707C79.5136 53.8448 79.8877 53.4992 80.3495 53.4992C80.8109 53.4992 81.1853 53.8448 81.1853 54.2707C81.1853 54.697 80.8109 55.0423 80.3495 55.0423Z" fill="#DEF4F9"/>
<path id="path49" d="M83.2082 57.6633C83.2082 57.2374 83.5823 56.8917 84.0441 56.8917C84.5058 56.8917 84.8799 57.2374 84.8799 57.6633C84.8799 58.0895 84.5058 58.4349 84.0441 58.4349C83.5823 58.4349 83.2082 58.0895 83.2082 57.6633Z" fill="#DEF4F9"/>
<path id="path50" d="M87.3459 60.029C87.8076 60.029 88.1817 60.3744 88.1817 60.8006C88.1817 61.2265 87.8076 61.5722 87.3459 61.5722C86.8841 61.5722 86.51 61.2265 86.51 60.8006C86.51 60.3744 86.8841 60.029 87.3459 60.029Z" fill="#DEF4F9"/>
<path id="path51" d="M91.1098 63.0689C91.5712 63.0689 91.9456 63.4145 91.9456 63.8404C91.9456 64.2667 91.5712 64.612 91.1098 64.612C90.648 64.612 90.2739 64.2667 90.2739 63.8404C90.2739 63.4145 90.648 63.0689 91.1098 63.0689Z" fill="#DEF4F9"/>
</g>
<g id="logoText">
<path d="M19.7727 125.909V136H14.9318V118.545H19.5455V121.625H19.75C20.1364 120.61 20.7841 119.807 21.6932 119.216C22.6023 118.617 23.7045 118.318 25 118.318C26.2121 118.318 27.2689 118.583 28.1705 119.114C29.072 119.644 29.7727 120.402 30.2727 121.386C30.7727 122.364 31.0227 123.53 31.0227 124.886V136H26.1818V125.75C26.1894 124.682 25.9167 123.848 25.3636 123.25C24.8106 122.644 24.0492 122.341 23.0795 122.341C22.428 122.341 21.8523 122.481 21.3523 122.761C20.8598 123.042 20.4735 123.451 20.1932 123.989C19.9205 124.519 19.7803 125.159 19.7727 125.909ZM39.8153 136.33C38.7017 136.33 37.7093 136.136 36.8381 135.75C35.9669 135.356 35.2775 134.777 34.7699 134.011C34.2699 133.239 34.0199 132.277 34.0199 131.125C34.0199 130.155 34.1979 129.341 34.554 128.682C34.91 128.023 35.3949 127.492 36.0085 127.091C36.6222 126.689 37.3191 126.386 38.0994 126.182C38.8873 125.977 39.7131 125.833 40.5767 125.75C41.5919 125.644 42.41 125.545 43.0312 125.455C43.6525 125.356 44.1032 125.212 44.3835 125.023C44.6638 124.833 44.804 124.553 44.804 124.182V124.114C44.804 123.394 44.5767 122.837 44.1222 122.443C43.6752 122.049 43.0388 121.852 42.2131 121.852C41.3419 121.852 40.6487 122.045 40.1335 122.432C39.6184 122.811 39.2775 123.288 39.1108 123.864L34.6335 123.5C34.8608 122.439 35.3078 121.523 35.9744 120.75C36.6411 119.97 37.5009 119.371 38.554 118.955C39.6146 118.53 40.8419 118.318 42.2358 118.318C43.2055 118.318 44.1335 118.432 45.0199 118.659C45.9138 118.886 46.7055 119.239 47.3949 119.716C48.0919 120.193 48.6411 120.807 49.0426 121.557C49.4441 122.299 49.6449 123.189 49.6449 124.227V136H45.054V133.58H44.9176C44.6373 134.125 44.2623 134.606 43.7926 135.023C43.3229 135.432 42.7585 135.754 42.0994 135.989C41.4403 136.216 40.679 136.33 39.8153 136.33ZM41.2017 132.989C41.9138 132.989 42.5426 132.848 43.0881 132.568C43.6335 132.28 44.0616 131.894 44.3722 131.409C44.6828 130.924 44.8381 130.375 44.8381 129.761V127.909C44.6866 128.008 44.4782 128.098 44.2131 128.182C43.9555 128.258 43.6638 128.33 43.3381 128.398C43.0123 128.458 42.6866 128.515 42.3608 128.568C42.035 128.614 41.7396 128.655 41.4744 128.693C40.9063 128.777 40.41 128.909 39.9858 129.091C39.5616 129.273 39.232 129.519 38.9972 129.83C38.7623 130.133 38.6449 130.511 38.6449 130.966C38.6449 131.625 38.8835 132.129 39.3608 132.477C39.8456 132.818 40.4593 132.989 41.2017 132.989ZM69.0483 118.545L62.946 136H57.4915L51.3892 118.545H56.5028L60.1278 131.034H60.3097L63.9233 118.545H69.0483Z" fill="#114E60"/>
<path d="M73.4403 136H68.1676L76.2017 112.727H82.5426L90.5653 136H85.2926L79.4631 118.045H79.2812L73.4403 136ZM73.1108 126.852H85.5653V130.693H73.1108V126.852ZM93.3693 136V118.545H98.2102V136H93.3693ZM95.8011 116.295C95.0814 116.295 94.464 116.057 93.9489 115.58C93.4413 115.095 93.1875 114.515 93.1875 113.841C93.1875 113.174 93.4413 112.602 93.9489 112.125C94.464 111.64 95.0814 111.398 95.8011 111.398C96.5208 111.398 97.1345 111.64 97.642 112.125C98.1572 112.602 98.4148 113.174 98.4148 113.841C98.4148 114.515 98.1572 115.095 97.642 115.58C97.1345 116.057 96.5208 116.295 95.8011 116.295ZM108.52 136.284C107.194 136.284 105.993 135.943 104.918 135.261C103.849 134.572 103.001 133.561 102.372 132.227C101.751 130.886 101.44 129.242 101.44 127.295C101.44 125.295 101.762 123.633 102.406 122.307C103.05 120.973 103.906 119.977 104.974 119.318C106.05 118.652 107.228 118.318 108.509 118.318C109.486 118.318 110.3 118.485 110.952 118.818C111.611 119.144 112.141 119.553 112.543 120.045C112.952 120.53 113.262 121.008 113.474 121.477H113.622V112.727H118.452V136H113.679V133.205H113.474C113.247 133.689 112.925 134.17 112.509 134.648C112.099 135.117 111.565 135.508 110.906 135.818C110.255 136.129 109.459 136.284 108.52 136.284ZM110.054 132.432C110.834 132.432 111.493 132.22 112.031 131.795C112.577 131.364 112.993 130.761 113.281 129.989C113.577 129.216 113.724 128.311 113.724 127.273C113.724 126.235 113.58 125.333 113.293 124.568C113.005 123.803 112.588 123.212 112.043 122.795C111.497 122.379 110.834 122.17 110.054 122.17C109.259 122.17 108.588 122.386 108.043 122.818C107.497 123.25 107.084 123.848 106.804 124.614C106.524 125.379 106.384 126.265 106.384 127.273C106.384 128.288 106.524 129.186 106.804 129.966C107.092 130.739 107.505 131.345 108.043 131.784C108.588 132.216 109.259 132.432 110.054 132.432Z" fill="#FF4755"/>
</g>
<path id="path10_2" d="M76 48.2985H70.7015V43H65.2985V48.2985H60V53.7015H65.2985V59H70.7015V53.7015H76V48.2985Z" fill="#FF4755"/>
</g>
<defs>
<clipPath id="clip0_17_2">
<rect width="136" height="136" fill="white"/>
</clipPath>
</defs>
</svg>
